<svg xmlns="http://www.w3.org/2000/svg" width="256" height="256" viewBox="0 0 100 100"><rect width="100" height="100" rx="20" fill="#fefeff"></rect><path fill="#000000" d="M45.29 76.41L34.95 76.41L22.79 55.28L16.18 55.28L16.18 76.41L7.52 76.41L7.52 23.59L25.76 23.59Q31.84 23.59 36.05 25.72Q40.27 27.85 42.36 31.42Q44.45 34.99 44.45 39.40L44.45 39.40Q44.45 44.57 41.45 48.78Q38.45 53.00 32.22 54.52L32.22 54.52L45.29 76.41ZM16.18 30.66L16.18 48.37L25.76 48.37Q30.62 48.37 33.09 45.93Q35.56 43.50 35.56 39.40L35.56 39.40Q35.56 35.29 33.13 32.98Q30.70 30.66 25.76 30.66L25.76 30.66L16.18 30.66ZM92.48 39.32Q92.48 43.35 90.58 46.92Q88.68 50.49 84.50 52.74Q80.32 54.98 73.79 54.98L73.79 54.98L64.21 54.98L64.21 76.41L55.55 76.41L55.55 23.59L73.79 23.59Q79.87 23.59 84.09 25.68Q88.30 27.77 90.39 31.34Q92.48 34.91 92.48 39.32L92.48 39.32ZM73.79 47.91Q78.73 47.91 81.16 45.67Q83.59 43.43 83.59 39.32L83.59 39.32Q83.59 30.66 73.79 30.66L73.79 30.66L64.21 30.66L64.21 47.91L73.79 47.91Z"></path></svg>